<svg xmlns="http://www.w3.org/2000/svg" version="1.1" xmlns:xlink="http://www.w3.org/1999/xlink" viewBox="0 0 200 200"><rect width="200" height="200" fill="url('#gradient')"></rect><defs><linearGradient id="gradient" gradientTransform="rotate(146 0.5 0.5)"><stop offset="0%" stop-color="#b7aabc"></stop><stop offset="100%" stop-color="#574c59"></stop></linearGradient></defs><g><g fill="#ffffff" transform="matrix(5.007812003810733,0,0,5.007812003810733,19.85399233561995,133.02819710068567)" stroke="#c5c5c5" stroke-width="0.25"><path d="M8.41-3.78L8.41-3.78Q8.41-4.53 7.88-4.95Q7.34-5.37 6.01-5.82Q4.67-6.27 3.82-6.69L3.82-6.69Q1.05-8.05 1.05-10.42L1.05-10.42Q1.05-11.60 1.74-12.50Q2.43-13.41 3.69-13.91Q4.95-14.41 6.52-14.41L6.52-14.41Q8.06-14.41 9.27-13.87Q10.49-13.32 11.16-12.31Q11.84-11.30 11.84-10L11.84-10L8.42-10Q8.42-10.87 7.89-11.35Q7.35-11.83 6.45-11.83L6.45-11.83Q5.53-11.83 5.00-11.42Q4.46-11.02 4.46-10.39L4.46-10.39Q4.46-9.84 5.05-9.40Q5.63-8.96 7.11-8.48Q8.58-8.01 9.53-7.46L9.53-7.46Q11.84-6.13 11.84-3.80L11.84-3.80Q11.84-1.93 10.43-0.87Q9.02 0.20 6.57 0.20L6.57 0.20Q4.84 0.20 3.44-0.42Q2.04-1.04 1.33-2.12Q0.63-3.20 0.63-4.61L0.63-4.61L4.06-4.61Q4.06-3.47 4.65-2.92Q5.24-2.38 6.57-2.38L6.57-2.38Q7.42-2.38 7.92-2.75Q8.41-3.12 8.41-3.78ZM19.43-14.22L14.57 1.22L12.24 1.22L17.09-14.22L19.43-14.22ZM27.95-3.78L27.95-3.78Q27.95-4.53 27.42-4.95Q26.88-5.37 25.55-5.82Q24.21-6.27 23.36-6.69L23.36-6.69Q20.60-8.05 20.60-10.42L20.60-10.42Q20.60-11.60 21.28-12.50Q21.97-13.41 23.23-13.91Q24.49-14.41 26.06-14.41L26.06-14.41Q27.60-14.41 28.81-13.87Q30.03-13.32 30.70-12.31Q31.38-11.30 31.38-10L31.38-10L27.96-10Q27.96-10.87 27.43-11.35Q26.89-11.83 25.99-11.83L25.99-11.83Q25.07-11.83 24.54-11.42Q24.00-11.02 24.00-10.39L24.00-10.39Q24.00-9.84 24.59-9.40Q25.18-8.96 26.65-8.48Q28.13-8.01 29.07-7.46L29.07-7.46Q31.38-6.13 31.38-3.80L31.38-3.80Q31.38-1.93 29.97-0.87Q28.56 0.20 26.11 0.20L26.11 0.20Q24.38 0.20 22.98-0.42Q21.58-1.04 20.87-2.12Q20.17-3.20 20.17-4.61L20.17-4.61L23.60-4.61Q23.60-3.47 24.19-2.92Q24.79-2.38 26.11-2.38L26.11-2.38Q26.96-2.38 27.46-2.75Q27.95-3.12 27.95-3.78Z"></path></g></g></svg>